<svg width="1446" height="950" viewBox="0 0 1446 950" fill="none" xmlns="http://www.w3.org/2000/svg">
<g clip-path="url(#clip0_110_2669)">
<rect width="1446" height="950" fill="white"/>
<path d="M-53.0013 295.173C-131.41 378.57 -60.3737 642.832 -32.0543 711.555C31.4483 866.468 -74.4249 848.442 -77.3864 989.059C-80.3479 1129.68 206.818 1207.62 472.178 1128.76C792.191 1033.66 672.064 984.381 1106.09 999.757C1540.12 1015.13 1585.57 630.195 1558.12 584.769C1534.86 546.274 1585.47 379.878 1516.93 352.541C1484.63 339.659 1484.93 230.041 1373.86 253.227C1252.4 278.582 1148.79 99.29 1024.16 189.281C899.537 279.273 893.119 71.2036 715.135 130.749C537.151 190.295 332.244 122.618 229.927 176.541C33.8699 279.866 44.1873 191.802 -53.0013 295.173Z" fill="url(#paint0_linear_110_2669)"/>
<path d="M886.054 40.7269C886.054 40.7269 860.922 39.5505 863.859 53.2464C863.859 53.2464 863.27 55.666 866.094 56.7654C866.094 56.7654 866.14 55.738 868.68 56.0924C869.582 56.2103 870.499 56.2448 871.412 56.1952C872.645 56.1318 873.818 55.7565 874.752 55.1266C874.752 55.1266 881.828 52.856 884.58 43.8761C884.58 43.8761 886.61 41.9188 886.531 41.4153L882.285 42.8229C882.285 42.8229 883.733 45.2015 882.595 47.1793C882.595 47.1793 882.457 42.9103 881.643 43.0079C881.478 43.0079 879.434 43.835 879.434 43.835C879.434 43.835 881.934 47.9807 880.049 50.9911C880.049 50.9911 880.763 45.8847 878.654 44.1329L875.664 45.5097C875.664 45.5097 878.581 49.789 876.603 53.2824C876.603 53.2824 877.113 47.9242 875.036 45.8385L872.331 47.4824C872.331 47.4824 875.069 51.7001 873.402 54.5975C873.402 54.5975 873.177 48.3609 871.742 47.8883C871.742 47.8883 869.375 49.5116 869.011 50.1795C869.011 50.1795 870.889 53.2618 869.725 54.8595C869.725 54.8595 869.011 50.7035 868.402 50.6829C868.402 50.6829 866.041 53.4365 865.797 55.3064C865.915 53.5629 866.617 51.8735 867.834 50.4055C866.471 50.606 865.214 51.1113 864.216 51.8593C864.216 51.8593 864.586 49.9123 868.416 49.7428C868.416 49.7428 870.4 47.6519 870.889 47.5235C870.889 47.5235 867.08 47.2769 864.771 48.0732C864.771 48.0732 866.802 46.2392 871.584 47.0714L874.229 45.3761C874.229 45.3761 869.209 44.8624 867.086 45.4327C867.086 45.4327 869.533 43.8093 874.95 44.9909L877.86 43.6398C877.86 43.6398 873.581 42.9257 871.035 43.1825C871.035 43.1825 873.726 42.0575 878.713 43.275L880.796 42.5507C880.796 42.5507 877.662 42.0729 876.742 41.9958C875.823 41.9188 875.777 41.7236 875.777 41.7236C877.762 41.467 879.8 41.6449 881.663 42.2373C881.663 42.2373 886.134 40.9427 886.054 40.7269Z" fill="#6C63FF"/>
<circle cx="1321.93" cy="165.041" r="6.5" fill="#FECB42"/>
<circle cx="965.927" cy="106.04" r="34.5" fill="#E8F5FF"/>
<path d="M158.091 512.595C88.4367 501.795 12.3147 572.429 -17.0395 609.095L-25 1168H1470.57V643.596C1397.93 668.596 1416.84 555.096 1267.58 462.596C1118.32 370.096 1011.85 534.096 893.439 603.096C775.027 672.096 673.034 488.596 587.956 485.096C502.879 481.596 479.495 562.596 385.959 609.095C292.424 655.595 245.158 526.095 158.091 512.595Z" fill="white"/>
<ellipse cx="179.484" cy="643.5" rx="6.46788" ry="6.5" fill="#FFEB3B"/>
<ellipse cx="1137.47" cy="584.5" rx="6.46788" ry="6.5" fill="#DCE7FF"/>
<ellipse cx="532.483" cy="567.5" rx="3.48271" ry="3.5" fill="#6C63FF"/>
<ellipse cx="1052.94" cy="613" rx="12.9358" ry="13" fill="#70DDFF"/>
</g>
<defs>
<linearGradient id="paint0_linear_110_2669" x1="-95.4527" y1="336.599" x2="1846.85" y2="843.308" gradientUnits="userSpaceOnUse">
<stop stop-color="#0080FF" stop-opacity="0.57"/>
<stop offset="1" stop-color="#9FE1F7" stop-opacity="0.54"/>
</linearGradient>
<clipPath id="clip0_110_2669">
<rect width="1446" height="950" fill="white"/>
</clipPath>
</defs>
</svg>
