<svg width="1366" height="1266" viewBox="0 0 1366 1266" fill="none" xmlns="http://www.w3.org/2000/svg">
<g clip-path="url(#clip0_77_2514)">
<rect width="1366" height="1266" fill="white"/>
<path d="M-47.0013 221.172C-125.41 304.569 -54.3737 568.831 -26.0543 637.554C37.4483 792.468 -68.4249 774.441 -71.3864 915.058C-74.3479 1055.68 212.818 1133.62 478.178 1054.76C798.191 959.661 678.064 910.38 1112.09 925.757C1546.12 941.133 1591.57 556.195 1564.12 510.768C1540.86 472.273 1591.47 305.877 1522.93 278.54C1490.63 265.658 1490.93 156.04 1379.86 179.227C1258.4 204.581 1154.79 25.2893 1030.16 115.281C905.537 205.272 899.119 -2.79713 721.135 56.7485C543.151 116.294 338.244 48.6169 235.927 102.54C39.8699 205.866 50.1873 117.801 -47.0013 221.172Z" fill="url(#paint0_linear_77_2514)"/>
<path d="M815.865 32.4108C815.865 32.4108 792.962 30.9023 795.638 48.4641C795.638 48.4641 795.101 51.5667 797.675 52.9764C797.675 52.9764 797.717 51.659 800.032 52.1135C800.854 52.2647 801.689 52.3089 802.521 52.2452C803.645 52.164 804.714 51.6828 805.565 50.8751C805.565 50.8751 812.014 47.9635 814.521 36.4489C814.521 36.4489 816.372 33.9391 816.299 33.2935L812.43 35.0985C812.43 35.0985 813.75 38.1484 812.713 40.6845C812.713 40.6845 812.587 35.2104 811.845 35.3356C811.695 35.3356 809.832 36.3962 809.832 36.3962C809.832 36.3962 812.11 41.7121 810.393 45.5723C810.393 45.5723 811.044 39.0245 809.121 36.7782L806.397 38.5436C806.397 38.5436 809.055 44.0309 807.252 48.5102C807.252 48.5102 807.717 41.6397 805.824 38.9652L803.359 41.0732C803.359 41.0732 805.854 46.4813 804.335 50.1966C804.335 50.1966 804.13 42.1996 802.822 41.5936C802.822 41.5936 800.665 43.6751 800.333 44.5315C800.333 44.5315 802.045 48.4839 800.984 50.5325C800.984 50.5325 800.333 45.2034 799.779 45.1771C799.779 45.1771 797.627 48.7078 797.404 51.1056C797.512 48.87 798.151 46.7038 799.26 44.8213C798.019 45.0784 796.873 45.7263 795.963 46.6855C795.963 46.6855 796.301 44.189 799.791 43.9716C799.791 43.9716 801.599 41.2905 802.045 41.1258C802.045 41.1258 798.573 40.8097 796.47 41.8307C796.47 41.8307 798.32 39.479 802.678 40.5462L805.089 38.3724C805.089 38.3724 800.514 37.7136 798.579 38.4448C798.579 38.4448 800.809 36.3632 805.746 37.8783L808.398 36.1458C808.398 36.1458 804.498 35.2302 802.177 35.5596C802.177 35.5596 804.631 34.1169 809.175 35.6781L811.074 34.7493C811.074 34.7493 808.217 34.1367 807.379 34.0379C806.541 33.9391 806.499 33.6888 806.499 33.6888C808.308 33.3598 810.166 33.5879 811.863 34.3475C811.863 34.3475 815.938 32.6875 815.865 32.4108Z" fill="#6C63FF"/>
<circle cx="1327.93" cy="142.041" r="6.5" fill="#FECB42"/>
<circle cx="971.927" cy="83.04" r="34.5" fill="#E8F5FF"/>
<path d="M161.427 621.136C91.4268 610.336 14.9268 680.969 -14.5732 717.636L-22.5732 1276.54H1480.43V752.136C1407.43 777.136 1426.43 663.636 1276.43 571.136C1126.43 478.636 1019.43 642.636 900.427 711.636C781.427 780.636 678.927 597.136 593.427 593.636C507.927 590.136 484.427 671.136 390.427 717.636C296.427 764.135 248.927 634.636 161.427 621.136Z" fill="white"/>
<g clip-path="url(#clip1_77_2514)">
<path d="M215.477 975.623C222.122 968.407 227.058 959.922 229.952 950.74C232.846 941.559 233.631 931.895 232.253 922.401C230.875 912.907 227.367 903.804 221.965 895.707C216.564 887.61 209.395 880.708 200.942 875.465C205.313 869.038 207.63 861.548 207.612 853.898C207.612 832.269 189.556 814.733 167.236 814.733C158.424 814.791 149.871 817.574 142.876 822.661C135.881 827.748 130.825 834.862 128.475 842.923C123.223 834.375 115.709 827.278 106.678 822.333C97.6474 817.389 87.4125 814.769 76.9869 814.733C43.7815 814.733 16.8586 840.792 16.8586 873.105C16.8534 879.975 18.0992 886.794 20.5409 893.262C19.3135 893.17 18.1022 893.078 16.8586 893.078C-9.80588 893.078 -31.4152 914.048 -31.4152 939.922C-31.4152 941.455 -31.3183 943.095 -31.1568 944.659C-42.0064 949.277 -51.209 956.787 -57.6457 966.276C-64.0825 975.765 -67.4764 986.824 -67.4147 998.11C-67.4147 1030.3 -40.5726 1056.36 -7.48019 1056.36C-3.99832 1056.36 -0.523364 1056.06 2.90457 1055.48C2.72691 1057.42 2.61387 1059.38 2.61387 1061.36C2.61387 1097.41 32.7346 1126.64 69.8646 1126.64C83.6251 1126.63 97.0382 1122.54 108.222 1114.93C117.213 1122.42 128.768 1126.56 140.733 1126.56C168.496 1126.56 190.977 1104.74 190.977 1077.79C190.977 1076.62 190.88 1075.47 190.8 1074.34H190.977C220.694 1074.34 244.791 1050.95 244.791 1022.11C244.836 1012.56 242.129 1003.19 236.962 994.991C231.795 986.796 224.366 980.098 215.477 975.623V975.623Z" fill="url(#paint1_linear_77_2514)"/>
<path d="M106.074 906.292H98.209V1269.92H106.074V906.292Z" fill="#DCE7FF"/>
<path d="M161.985 947.332L97.4946 1013.43L103.266 1018.5L167.756 952.404L161.985 947.332Z" fill="#DCE7FF"/>
<path d="M35.8555 1022.69L31.166 1028.68L98.0311 1075.81L102.721 1069.82L35.8555 1022.69Z" fill="#DCE7FF"/>
<path d="M130.833 1048.79C120.732 1038.6 115.102 1025.13 115.086 1011.13C115.142 1001.48 117.835 991.998 122.902 983.624C127.969 975.25 135.236 968.265 143.995 963.352C140.066 957.943 137.96 951.529 137.955 944.958C137.955 926.564 154.267 911.542 174.407 911.542C182.18 911.47 189.772 913.767 196.067 918.097C202.361 922.426 207.025 928.559 209.373 935.592C214.34 928.175 221.211 922.078 229.341 917.871C237.472 913.664 246.594 911.486 255.854 911.542C285.845 911.542 310.168 933.83 310.168 961.329C310.182 967.205 309.066 973.033 306.873 978.528C307.972 978.451 309.07 978.375 310.2 978.375C334.265 978.375 353.807 996.263 353.807 1018.34C353.805 1019.69 353.729 1021.04 353.581 1022.38C363.172 1026.07 371.395 1032.38 377.208 1040.5C383.021 1048.63 386.163 1058.21 386.237 1068.03C386.237 1095.45 362.011 1117.67 332.1 1117.67C328.961 1117.67 325.828 1117.41 322.733 1116.91C322.895 1118.57 322.992 1120.24 322.992 1121.93C322.992 1152.69 295.81 1177.63 262.266 1177.63C249.969 1177.64 237.948 1174.17 227.736 1167.67C219.461 1174.11 209.08 1177.63 198.374 1177.6C173.309 1177.6 152.991 1158.96 152.991 1135.98C152.991 1134.99 153.088 1134.01 153.153 1133.04H152.991C126.165 1133.04 104.411 1113.11 104.411 1088.48C104.474 1080.18 106.983 1072.07 111.652 1065.06C116.321 1058.04 122.966 1052.41 130.833 1048.79V1048.79Z" fill="url(#paint2_linear_77_2514)"/>
<path d="M238.67 990.53H228.85V1300.08H238.67V990.53Z" fill="#DCE7FF"/>
<path d="M180.024 1023.61L173.012 1030.13L231.249 1086.52L238.261 1079.99L180.024 1023.61Z" fill="#DCE7FF"/>
<path d="M292.323 1087.66L231.947 1127.88L237.588 1135.51L297.964 1095.29L292.323 1087.66Z" fill="#DCE7FF"/>
<path d="M334.943 967.836H329.048V988.346H334.943V967.836Z" fill="#70DDFF"/>
<path d="M334.943 962.241H279.934V967.836H334.943V962.241Z" fill="#70DDFF"/>
<path d="M330.566 1022.84C341.6 1022.84 350.544 1014.35 350.544 1003.87C350.544 993.401 341.6 984.912 330.566 984.912C319.532 984.912 310.588 993.401 310.588 1003.87C310.588 1014.35 319.532 1022.84 330.566 1022.84Z" fill="url(#paint3_linear_77_2514)"/>
<path d="M330.566 1018.28C340.734 1018.28 348.977 1010.46 348.977 1000.81C348.977 991.157 340.734 983.333 330.566 983.333C320.397 983.333 312.154 991.157 312.154 1000.81C312.154 1010.46 320.397 1018.28 330.566 1018.28Z" fill="#FFEB3B"/>
<path d="M285.829 908.162H279.934V1186.01H285.829V908.162Z" fill="#70DDFF"/>
<path d="M282.438 911.473C290.537 911.473 297.102 905.241 297.102 897.554C297.102 889.867 290.537 883.636 282.438 883.636C274.339 883.636 267.773 889.867 267.773 897.554C267.773 905.241 274.339 911.473 282.438 911.473Z" fill="#4F79A4"/>
<path d="M358.522 982.751H303.514V988.346H358.522V982.751Z" fill="#70DDFF"/>
<path d="M282.098 1266.21C271.778 1266.21 263.348 1268.55 263.348 1258.76V1187.56C263.36 1182.84 265.34 1178.32 268.853 1174.98C272.366 1171.64 277.128 1169.76 282.098 1169.75V1169.75C287.069 1169.76 291.831 1171.64 295.344 1174.98C298.857 1178.32 300.836 1182.84 300.849 1187.56V1258.76C300.849 1268.55 292.419 1266.21 282.098 1266.21Z" fill="#70DDFF"/>
<path d="M1273.27 967.836H1267.38V988.346H1273.27V967.836Z" fill="#70DDFF"/>
<path d="M1322.38 962.241H1267.38V967.836H1322.38V962.241Z" fill="#70DDFF"/>
<path d="M1271.74 1022.84C1282.77 1022.84 1291.71 1014.35 1291.71 1003.87C1291.71 993.401 1282.77 984.912 1271.74 984.912C1260.7 984.912 1251.76 993.401 1251.76 1003.87C1251.76 1014.35 1260.7 1022.84 1271.74 1022.84Z" fill="url(#paint4_linear_77_2514)"/>
<path d="M1271.74 1018.28C1281.9 1018.28 1290.15 1010.46 1290.15 1000.81C1290.15 991.157 1281.9 983.333 1271.74 983.333C1261.57 983.333 1253.32 991.157 1253.32 1000.81C1253.32 1010.46 1261.57 1018.28 1271.74 1018.28Z" fill="#FFEB3B"/>
<path d="M1322.38 908.162H1316.49V1186.01H1322.38V908.162Z" fill="#70DDFF"/>
<path d="M1319.88 911.473C1327.98 911.473 1334.55 905.241 1334.55 897.554C1334.55 889.867 1327.98 883.636 1319.88 883.636C1311.78 883.636 1305.22 889.867 1305.22 897.554C1305.22 905.241 1311.78 911.473 1319.88 911.473Z" fill="#4F79A4"/>
<path d="M1298.8 982.751H1243.8V988.346H1298.8V982.751Z" fill="#70DDFF"/>
<path d="M1320.2 1266.21C1330.52 1266.21 1338.95 1268.55 1338.95 1258.76V1187.56C1338.94 1182.84 1336.96 1178.32 1333.45 1174.98C1329.94 1171.64 1325.17 1169.76 1320.2 1169.75V1169.75C1315.23 1169.76 1310.47 1171.64 1306.96 1174.98C1303.45 1178.32 1301.47 1182.84 1301.45 1187.56V1258.76C1301.45 1268.55 1309.82 1266.21 1320.2 1266.21Z" fill="#70DDFF"/>
<g opacity="0.1">
<path opacity="0.1" d="M660.149 1103.45C660.149 1103.45 660.149 1103.28 660.149 1103.2C660.227 1103.26 660.292 1103.34 660.343 1103.42C660.528 1103.81 660.616 1104.23 660.602 1104.66C660.595 1104.71 660.595 1104.76 660.602 1104.81C660.369 1104.39 660.216 1103.92 660.149 1103.45Z" fill="black"/>
</g>
<path d="M1013.76 1258.19C1014.07 1258.19 1014.31 1257.96 1014.31 1257.67C1014.31 1257.38 1014.07 1257.15 1013.76 1257.15C1013.46 1257.15 1013.22 1257.38 1013.22 1257.67C1013.22 1257.96 1013.46 1258.19 1013.76 1258.19Z" fill="#E8F5FF"/>
<path d="M1009.13 1253.26C1009.43 1253.26 1009.68 1253.02 1009.68 1252.73C1009.68 1252.45 1009.43 1252.21 1009.13 1252.21C1008.83 1252.21 1008.58 1252.45 1008.58 1252.73C1008.58 1253.02 1008.83 1253.26 1009.13 1253.26Z" fill="#E8F5FF"/>
<path d="M1007.42 1255.6C1007.72 1255.6 1007.97 1255.37 1007.97 1255.08C1007.97 1254.79 1007.72 1254.56 1007.42 1254.56C1007.11 1254.56 1006.87 1254.79 1006.87 1255.08C1006.87 1255.37 1007.11 1255.6 1007.42 1255.6Z" fill="#E8F5FF"/>
<path d="M1005.5 1257.46C1005.8 1257.46 1006.04 1257.22 1006.04 1256.93C1006.04 1256.65 1005.8 1256.41 1005.5 1256.41C1005.19 1256.41 1004.95 1256.65 1004.95 1256.93C1004.95 1257.22 1005.19 1257.46 1005.5 1257.46Z" fill="#E8F5FF"/>
<path d="M1010.94 1259C1011.24 1259 1011.49 1258.77 1011.49 1258.48C1011.49 1258.19 1011.24 1257.96 1010.94 1257.96C1010.63 1257.96 1010.39 1258.19 1010.39 1258.48C1010.39 1258.77 1010.63 1259 1010.94 1259Z" fill="#E8F5FF"/>
<path opacity="0.1" d="M1152.69 1259.56C1152.69 1259.56 1152.69 1259.56 1152.82 1259.72C1152.95 1259.89 1152.71 1259.59 1152.69 1259.56Z" fill="black"/>
</g>
<circle cx="182.927" cy="669.04" r="6.5" fill="#FFEB3B"/>
<circle cx="1095.93" cy="743.04" r="6.5" fill="#DCE7FF"/>
<circle cx="1193.93" cy="706.04" r="3.5" fill="#6C63FF"/>
<circle cx="1056.43" cy="709.54" r="13" fill="#70DDFF"/>
</g>
<defs>
<linearGradient id="paint0_linear_77_2514" x1="-89.4527" y1="262.598" x2="1852.85" y2="769.308" gradientUnits="userSpaceOnUse">
<stop stop-color="#0470DC"/>
<stop offset="1" stop-color="#70DDFF"/>
</linearGradient>
<linearGradient id="paint1_linear_77_2514" x1="5.92663" y1="848.54" x2="109.927" y2="1118.54" gradientUnits="userSpaceOnUse">
<stop stop-color="#0470DC"/>
<stop offset="1" stop-color="#70DDFF"/>
</linearGradient>
<linearGradient id="paint2_linear_77_2514" x1="201.427" y1="987.569" x2="318.427" y2="1258.57" gradientUnits="userSpaceOnUse">
<stop stop-color="#0470DC"/>
<stop offset="1" stop-color="#6BD7FD"/>
<stop offset="1" stop-color="#70DDFF"/>
</linearGradient>
<linearGradient id="paint3_linear_77_2514" x1="10408" y1="6385.53" x2="10408" y2="5446.94" gradientUnits="userSpaceOnUse">
<stop stop-color="#808080" stop-opacity="0.25"/>
<stop offset="0.54" stop-color="#808080" stop-opacity="0.12"/>
<stop offset="1" stop-color="#808080" stop-opacity="0.1"/>
</linearGradient>
<linearGradient id="paint4_linear_77_2514" x1="-20592.5" y1="15010" x2="-20592.5" y2="14071.4" gradientUnits="userSpaceOnUse">
<stop stop-color="#808080" stop-opacity="0.25"/>
<stop offset="0.54" stop-color="#808080" stop-opacity="0.12"/>
<stop offset="1" stop-color="#808080" stop-opacity="0.1"/>
</linearGradient>
<clipPath id="clip0_77_2514">
<rect width="1366" height="1266" fill="white"/>
</clipPath>
<clipPath id="clip1_77_2514">
<rect width="1444" height="653" fill="white" transform="translate(-77.5732 804.54)"/>
</clipPath>
</defs>
</svg>
