<svg width="1169" height="1465" viewBox="0 0 1169 1465" fill="none" xmlns="http://www.w3.org/2000/svg">
<path d="M79.2532 1C79.4198 34.8547 94.7531 108.197 154.753 130.729C229.753 158.894 283.253 159.321 359.253 158.467C420.053 157.784 738.42 155.325 883.253 155.61C921.753 155.685 988.8 167.051 1034.75 201.451C1088.75 241.874 1089.91 279.55 1092.25 313.137C1094.25 341.814 1092.25 488.738 1092.25 535.258C1092.25 641.109 1012.25 709.454 863.753 710.288L293.753 716.064C165.753 716.064 82.7532 759.393 76.2532 869.065V1127.86C70.7532 1218.71 155.753 1281.77 245.253 1281.77C351.753 1281.77 416.753 1283.2 450.753 1281.77C521.753 1281.77 585.753 1322.89 589.753 1391.65C589.753 1395.41 589.753 1413.93 589.753 1465" stroke="#E6E8EC" stroke-width="150"/>
<path d="M79.2532 1C79.4198 34.8547 94.7531 108.197 154.753 130.729C229.753 158.894 283.253 159.321 359.253 158.467C420.053 157.784 738.42 155.325 883.253 155.61C921.753 155.685 988.8 167.051 1034.75 201.451C1088.75 241.874 1089.91 279.55 1092.25 313.137C1094.25 341.814 1092.25 488.738 1092.25 535.258C1092.25 641.109 1012.25 709.454 863.753 710.288L293.753 716.064C165.753 716.064 82.7532 759.393 76.2532 869.065V1127.86C70.7532 1218.71 155.753 1281.77 245.253 1281.77C351.753 1281.77 416.753 1283.2 450.753 1281.77C521.753 1281.77 585.753 1322.89 589.753 1391.65C589.753 1395.41 589.753 1413.93 589.753 1465" stroke="url(#paint0_linear_75_2511)" stroke-width="150"/>
<path d="M79.2532 1C79.4198 34.8547 94.7531 108.197 154.753 130.729C229.753 158.894 283.253 159.321 359.253 158.467C420.053 157.784 738.42 155.325 883.253 155.61C921.753 155.685 988.8 167.051 1034.75 201.451C1088.75 241.874 1089.91 279.55 1092.25 313.137C1094.25 341.814 1092.25 488.738 1092.25 535.258C1092.25 641.109 1012.25 709.454 863.753 710.288L293.753 716.064C165.753 716.064 82.7532 759.393 76.2532 869.065V1127.86C70.7532 1218.71 155.753 1281.77 245.253 1281.77C351.753 1281.77 416.753 1283.2 450.753 1281.77C521.753 1281.77 585.753 1322.89 589.753 1391.65C589.753 1395.41 589.753 1398.1 589.753 1449.16" stroke="#0046FE" stroke-width="2" stroke-dasharray="10 15"/>
<path d="M79.2532 1C79.4198 34.8547 94.7531 108.197 154.753 130.729C229.753 158.894 283.253 159.321 359.253 158.467C420.053 157.784 738.42 155.325 883.253 155.61C921.753 155.685 988.8 167.051 1034.75 201.451C1088.75 241.874 1089.91 279.55 1092.25 313.137C1094.25 341.814 1092.25 488.738 1092.25 535.258C1092.25 641.109 1012.25 709.454 863.753 710.288L293.753 716.064C165.753 716.064 82.7532 759.393 76.2532 869.065V1127.86C70.7532 1218.71 155.753 1281.77 245.253 1281.77C351.753 1281.77 416.753 1283.2 450.753 1281.77C521.753 1281.77 585.753 1322.89 589.753 1391.65C589.753 1395.41 589.753 1398.1 589.753 1449.16" stroke="url(#paint1_linear_75_2511)" stroke-width="2" stroke-dasharray="10 15"/>
<defs>
<linearGradient id="paint0_linear_75_2511" x1="586.805" y1="1" x2="586.805" y2="1423.33" gradientUnits="userSpaceOnUse">
<stop stop-color="white"/>
<stop offset="0.541436" stop-color="#E6E8EC" stop-opacity="0.1"/>
<stop offset="1" stop-color="white"/>
</linearGradient>
<linearGradient id="paint1_linear_75_2511" x1="586.805" y1="1" x2="586.805" y2="1423.33" gradientUnits="userSpaceOnUse">
<stop stop-color="white"/>
<stop offset="0.209945" stop-color="#E6E8EC"/>
<stop offset="0.834254" stop-color="#E6E8EC"/>
<stop offset="1" stop-color="white"/>
</linearGradient>
</defs>
</svg>
