<svg width="299" height="234" viewBox="0 0 299 234" fill="none" xmlns="http://www.w3.org/2000/svg">
<mask id="mask0_3_13" style="mask-type:alpha" maskUnits="userSpaceOnUse" x="0" y="0" width="299" height="234">
<rect width="299" height="234" fill="#C4C4C4"/>
</mask>
<g mask="url(#mask0_3_13)">
<path d="M0 1H299V285H0V1Z" fill="#C4C4C4"/>
<path d="M50 -10H310V110H50V-10Z" fill="white"/>
<path d="M50 -10H310V110H50V-10Z" fill="white"/>
<path d="M0.0418586 0.509262H299.439V544H0.0418586V0.509262Z" fill="white"/>
<path fill-rule="evenodd" clip-rule="evenodd" d="M90.6691 192.641C88.4191 197.095 87.2972 201.404 86.9519 206.924L86.7509 210.14L85.8174 208.754C85.3116 208.002 84.2658 206.687 83.5339 205.883L82.1833 204.399L83.0742 201.377C83.9156 198.524 83.9581 198.132 83.8402 194.416C83.7349 191.116 83.5953 190.158 82.9779 188.509C81.8567 185.513 80.5039 183.445 78.06 180.993C75.5923 178.516 72.7144 176.901 69.6788 176.288C68.7321 176.097 67.9305 175.915 67.8691 175.877C67.807 175.838 68.956 174.545 70.4309 172.991C71.9058 171.439 73.1044 170.046 73.1044 169.886C73.1044 169.715 73.4386 169.669 73.9116 169.775C74.3519 169.873 75.5826 170.151 76.6137 170.385C77.6435 170.619 79.0528 170.819 79.7044 170.823C82.2105 170.84 82.6633 171.064 82.8726 172.395C83.5744 176.86 87.5449 185.049 90.5386 188.203C91.0653 188.758 91.5893 189.478 91.6793 189.771C91.7791 190.092 91.3702 191.254 90.6691 192.641ZM218.103 56.9984C217.61 57.7474 215.168 60.1686 214.912 60.1631C214.837 60.161 213.91 59.7302 212.88 59.2168L210.986 58.274L210.805 56.0556C210.705 54.8349 210.523 53.674 210.399 53.476C209.724 52.388 213.91 52.513 215.358 53.624C215.853 54.004 216.764 54.7529 217.405 55.3067C218.519 56.2689 218.544 56.3301 218.103 56.9984ZM298.238 125.221C297.763 123.78 297.714 123.291 297.975 122.614C299.5 118.679 299.909 111.216 298.844 106.752C298.13 103.756 297.317 101.524 296.314 99.7903C295.19 97.8491 291.706 93.8063 289.994 92.4571C287.515 90.5034 280.437 87.2547 278.66 87.2547C278.289 87.2547 277.787 86.5342 276.982 84.8425C274.977 80.6266 272.363 77.6927 268.439 75.2526C264.675 72.9106 261.393 72.0296 256.437 72.0296C252.342 72.0296 249.79 72.4201 247.302 73.4275C245.157 74.2953 244.458 74.041 243.613 72.0845C243.095 70.8874 243.01 70.0885 242.999 66.2339C242.991 63.7703 242.779 58.7041 242.525 54.9329C242.272 51.1603 242.066 47.897 242.066 47.6518C242.066 47.4079 242.162 43.7416 242.28 39.4987C242.521 30.8183 242.307 28.7438 240.953 26.6032C239.978 25.0629 238.613 24.3563 236.607 24.3563C235.382 24.3563 235.1 24.2577 234.948 23.7741C234.584 22.6201 231.622 19.7507 230.258 19.2325C227.584 18.216 224.178 19.42 223.135 21.7496L222.627 22.8862L221.951 22.1657C220.804 20.9423 218.533 19.9745 216.807 19.9745C214.94 19.9745 213.883 20.3413 212.796 21.3661C211.513 22.577 211.125 23.5525 211.125 25.5763C211.125 27.9066 212.198 30.2632 214.293 32.5379C215.103 33.4167 216.439 35.228 217.238 36.5314L218.701 38.9158H214.245C209.259 38.9158 207.374 39.2667 204.692 40.6895C200.932 42.6856 199.15 44.9422 199.15 47.708C199.15 48.7335 198.954 49.7958 198.664 50.3426C198.145 51.3201 198.201 54.4466 198.825 59.3558C199.378 63.7008 199.621 64.1538 205.065 71.0313C208.106 74.8726 213.13 79.5963 217.084 82.3316C218.867 83.5634 219.313 84.0219 219.313 84.6201C219.313 85.0245 219.396 85.8408 219.494 86.396L219.675 87.4214L216.932 87.7681C215.428 87.9578 213.095 88.4274 211.766 88.8082L209.343 89.5009L207.978 88.8311C206.579 88.1433 202.27 86.703 199.401 85.9645C197.389 85.4462 192.16 84.7209 188.678 84.477C186.145 84.2992 185.977 84.2471 185.977 83.6357C185.977 83.273 185.799 82.3879 185.573 81.6389L185.17 80.2938L186.493 78.8793C189.871 75.2658 192.927 69.839 193.755 65.9838C194.436 62.8039 194.174 57.4146 193.16 53.7539C192.307 50.6754 191.141 48.0089 189.8 46.0719C188.88 44.7428 185.225 40.9355 182.718 38.6942C181.514 37.6173 181.332 37.2942 181.16 35.9353C181.053 35.0939 180.512 33.0367 179.969 31.4005C177.343 23.4969 172.877 17.0391 166.538 11.9826C164.589 10.427 158.999 7.60975 157.293 7.32211C156.364 7.16579 155.937 6.82953 154.725 5.30383C153.031 3.16882 151.867 2.21769 149.829 1.30338C147.795 0.390458 142.254 0.229967 139.469 1.00254C134.651 2.33858 131.438 5.37469 130.277 9.6857C130.233 9.85244 129.248 10.5583 128.107 11.2441C125.628 12.7309 121.783 16.0136 119.699 18.4217C115.42 23.3656 112.697 28.7938 111.506 34.7563C110.78 38.3892 110.857 45.8593 111.648 48.5397L112.205 50.4253L111.465 51.5904C110.22 53.5503 108.24 57.9968 107.549 60.3819C106.601 63.6591 106.603 69.7557 107.553 73.2225C109.158 79.0738 112.813 84.1901 117.329 86.9066C118.666 87.7111 120.37 88.663 121.13 89.0298L122.509 89.6954L122.328 91.0273C122.23 91.7477 122.064 92.4473 121.966 92.5523C121.867 92.6586 120.197 93.2234 118.276 93.8014C111.397 95.8691 104.549 99.0511 99.923 102.329C98.6142 103.256 97.3507 104.08 97.0967 104.172C96.8351 104.267 95.4949 103.731 93.9914 102.93C89.7795 100.687 87.224 100.022 82.1833 99.8549C77.5047 99.7007 74.6798 100.075 70.403 101.416C64.8335 103.162 61.5049 105.177 57.286 109.354C52.6626 113.932 53.3163 113.545 51.1591 112.985C48.8679 112.389 41.6623 112.325 38.2926 112.869C28.6291 114.43 19.9472 120.057 16.4553 127.024C14.6463 130.634 14.4816 131.49 14.4816 137.285V142.611L13.3123 142.9C8.26256 144.153 4.49442 147.298 1.92628 152.401C0.489766 155.255 -1.90735e-06 157.531 -1.90735e-06 161.358C-1.90735e-06 167.514 1.50349 171.244 5.62535 175.307L8.27093 177.914L7.81325 179.384C6.10744 184.857 6.52465 190.283 9.07325 195.775C12.09 202.276 16.5984 206.45 23.783 209.396C26.3177 210.436 30.6788 211.567 32.1942 211.576C32.9009 211.582 33.0363 211.776 33.6446 213.662C35.3267 218.874 40.2698 223.873 45.7842 225.939C47.2898 226.503 48.0537 226.585 51.7584 226.585C55.6291 226.585 56.2081 226.515 58.3026 225.782L60.6 224.977L62.9812 227.265C64.2907 228.524 66.6154 230.477 68.1474 231.606C69.6788 232.734 71.0951 233.857 71.294 234.102C71.4956 234.349 72.0321 234.699 72.5051 234.892C73.0974 235.134 73.4114 235.516 73.5412 236.154C73.92 238.012 75.5142 242.463 76.133 243.392C76.484 243.918 77.393 244.763 78.1172 245.237L79.454 246.11L79.5928 248.287C79.6786 249.618 79.973 251.003 80.3526 251.85C81.3042 253.981 83.6867 256.157 86.6944 257.643C89.2047 258.883 89.3686 258.923 91.9863 258.923C94.6319 258.923 94.7198 258.9 96.2477 257.828L97.8063 256.732L98.01 258.451C98.2772 260.704 99.4751 264.137 101.089 267.271L102.402 269.821L101.796 270.848C100.931 272.313 99.3167 276.339 98.7167 278.53C96.9119 285.114 96.0398 296.002 96.7751 302.769C97.3995 308.51 99.1053 314.903 101.097 318.965L101.845 320.49L101.243 321.877C100.276 324.105 99.4877 327.589 98.8123 332.61C97.7463 340.541 98.3337 349.861 100.343 356.904C101.245 360.065 103.263 364.65 104.312 365.917L104.908 366.639L104.233 368.164C102.427 372.24 101.93 378.955 103.169 382.529C103.524 383.555 104.127 384.945 104.491 385.581L105.158 386.745L104.004 388.464C102.589 390.572 101.429 393.095 100.637 395.786C98.7914 402.054 98.4467 411.492 99.8651 416.946C100.127 417.953 100.961 420.024 101.72 421.549L103.097 424.323L101.941 426.209C99.6028 430.016 98.7412 433.087 98.2409 439.382C97.8753 443.985 98.2284 449.432 99.1423 453.276C99.854 456.271 102.311 461.359 104.392 464.148C105.756 465.973 107.999 467.876 110.228 469.093L111.174 469.611L110.983 472.163C110.064 484.365 107.224 496.898 103.711 504.25C101.927 507.986 99.0474 511.626 93.12 517.645C87.3558 523.496 85.4135 525.978 84.8707 528.182C83.813 532.482 83.6184 536.481 84.3614 538.638C85.1853 541.03 86.7223 542.14 90.8442 543.323C95.3609 544.621 105.855 543.995 114.154 541.934C118.443 540.869 121.147 539.916 124.57 538.261C127.215 536.983 127.955 536.456 129.992 534.395C132.932 531.423 133.37 531.136 137.297 529.598C141.558 527.929 142.559 527.422 144.426 525.992C146.761 524.204 147.426 522.581 147.399 518.726C147.387 517.095 147.456 514.261 147.55 512.431C147.748 508.575 147.583 507.522 145.743 500.893C143.887 494.21 143.283 490.6 143.091 485.031C142.926 480.233 143.317 473.819 143.863 472.384C144.021 471.968 144.333 471.635 144.566 471.635C145.563 471.635 149.216 469.423 151.556 467.404C155.031 464.406 157.898 460.098 159.243 455.856L159.772 454.191L163.642 457.797L163.241 459.96C162.192 465.617 159.244 477.549 157.766 482.118C155.648 488.664 155.152 491.479 155.376 495.652C155.945 506.218 155.973 506.436 156.88 507.744C158.928 510.691 161.415 511.445 174.253 513.005C182.413 513.997 182.195 513.953 189.959 516.221C197.033 518.287 201.239 519.209 206.307 519.807C216.472 521.003 232.389 521.171 236.858 520.129C241.314 519.09 244.171 517.216 244.796 514.926C245.212 513.401 244.882 508.712 244.297 507.826C244.061 507.469 243.876 506.883 243.876 506.497C243.876 505.574 242.484 503.477 240.98 502.133C238.461 499.882 232.124 496.309 224.855 493.039C218.895 490.36 213.608 487.695 210.93 486.023C203.69 481.502 199.183 476.004 197.549 469.694C197.089 467.919 196.963 464.042 197.338 463.149C197.447 462.889 198.705 462.066 200.152 461.309C203.244 459.693 204.103 459.07 206.976 456.356C210.198 453.311 213.469 448.145 215.018 443.652C216.99 437.939 217.555 428.149 216.16 423.88L215.553 422.021L217.316 419.691C219.53 416.765 220.473 414.893 221.637 411.121C223.031 406.601 223.404 404.184 223.395 399.751C223.386 395.341 222.537 390.204 221.39 387.632L220.761 386.218L222.053 383.721C224.071 379.824 224.399 378.369 224.182 374.237C223.968 370.132 223.409 367.567 222.267 365.446L221.429 363.893L222.307 362.797C222.793 362.19 223.815 360.454 224.599 358.9C228.096 351.978 229.841 342.844 229.448 333.525C229.233 328.422 228.544 324.831 227.094 321.239L226.109 318.799L226.839 317.828C227.967 316.331 229.962 311.866 230.792 308.982C232.365 303.517 233.098 297.638 233.098 290.511C233.098 286.518 232.977 285.146 232.37 282.329C231.165 276.728 229.139 272.493 226.083 269.183L224.827 267.825L225.691 266.577C228.291 262.824 229.736 259.644 230.921 255.068C231.678 252.148 231.733 251.546 231.733 246.249C231.733 241.839 231.613 240.01 231.195 238.095C230.498 234.906 229.242 231.261 228.155 229.276L227.306 227.723L229.634 225.283C233.642 221.081 236.422 216.27 237.645 211.415C238.29 208.858 238.356 201.044 237.758 198.049C236.547 191.974 233.293 185.291 229.59 181.27L228.058 179.606L230.397 176.542C231.689 174.85 233.322 172.26 234.043 170.759C235.483 167.765 237.083 162.564 237.353 159.999L237.527 158.363L238.696 159.097C243.321 162.002 250.393 163.847 256.853 163.836C261.338 163.829 263.703 163.497 266.545 162.476C267.894 161.991 269.608 161.663 271.642 161.5C281.25 160.726 287.055 158.312 291.855 153.093C297.352 147.116 300.066 138.562 299.153 130.075C298.972 128.383 298.559 126.197 298.238 125.221Z" fill="#1A1919"/>
<path fill-rule="evenodd" clip-rule="evenodd" d="M147.629 5.04121C149.216 5.55047 151.472 7.23527 151.472 7.91058C151.472 8.19474 151.11 8.32674 150.33 8.32674C148.91 8.32674 148.27 8.55949 148.27 9.07639C148.27 9.29733 148.309 9.49673 148.353 9.50298C153.923 10.2783 159.73 12.7705 163.921 16.1838C166.896 18.6072 170.869 23.6637 172.763 27.4348C174.615 31.1233 176.034 36.407 176.034 39.6099C176.034 41.0029 176.37 41.3982 178.847 42.9433C183.788 46.0225 188.316 54.3361 188.316 60.3263C188.316 65.5774 185.086 71.6197 179.404 76.9937C177.567 78.7327 177.192 79.2371 177.261 79.8777C177.316 80.396 177.636 80.8163 178.222 81.1401C178.911 81.5215 179.182 81.9585 179.491 83.1785C179.969 85.0641 179.847 85.4087 178.625 85.6533C174.17 86.5439 172.448 87.1032 172.156 87.7542C171.92 88.2808 171.968 88.5414 172.387 89.0027C172.887 89.5523 173.278 89.5835 179.377 89.5662C188.847 89.5398 194.916 90.3624 201.323 92.5425C210.011 95.4981 215.951 100.055 218.038 105.365C218.73 107.126 218.796 107.611 218.661 109.969C218.374 114.988 215.769 118.749 210.986 121.05C202.965 124.909 193.859 126.055 164.924 126.849C153.505 127.162 112.69 127.302 111.982 127.029C111.738 126.935 111.239 125.915 110.881 124.778C109.499 120.396 105.79 113.76 102.557 109.885C101.909 109.108 101.448 108.453 101.511 108.396C102.023 107.925 106.69 104.902 108.195 104.067C114.437 100.6 127.215 96.4158 137.743 94.3885C139.107 94.1259 140.909 93.7806 141.753 93.6194C142.727 93.4346 143.284 93.1768 143.284 92.9128C143.284 91.8061 140.416 91.5004 135.236 92.0541C128.524 92.7725 128.032 92.687 128.491 90.8876C128.724 89.9754 130.056 89.3647 132.73 88.9436C133.788 88.7776 134.877 88.5233 135.153 88.3781C135.808 88.0342 135.487 86.9935 134.679 86.8427C134.34 86.7795 132.897 86.5168 131.448 86.2556C127.745 85.5879 125.035 84.7445 122.732 83.5439C115.686 79.8714 110.971 70.4699 112.715 63.5716C114.57 56.2328 119.445 50.5448 127.41 46.4276C130.357 44.9047 129.694 44.1592 126.018 44.8623C123.79 45.2882 120.656 46.2595 119.251 46.9591C117.669 47.7469 117.04 46.7097 116.763 42.8544C116.325 36.753 118.717 28.8584 122.594 23.6081C124.291 21.3105 130.028 15.7176 132.646 13.8098C133.746 13.0081 136.072 11.6387 137.798 10.7765C142.127 8.61438 142.031 7.88349 137.519 8.66787C136.49 8.84712 135.567 8.90548 135.458 8.79849C135.181 8.52197 137.185 6.61068 138.411 5.98261C141.029 4.64033 145.089 4.22625 147.629 5.04121Z" fill="white"/>
<path fill-rule="evenodd" clip-rule="evenodd" d="M230.6 24.3848C231.104 25.09 231.81 26.2426 232.179 26.9631C232.785 28.1435 232.815 28.4061 232.499 29.7366C232.309 30.5439 231.964 33.3695 231.736 36.0047C230.768 47.1807 230.583 48.1687 228.795 51.7286C228.114 53.0869 227.187 55.3761 226.734 56.8178C226.006 59.1411 225.914 59.8685 225.914 63.2249C225.914 66.5528 226.009 67.2948 226.706 69.3673C227.63 72.113 228.277 72.9134 229.088 72.3117C229.596 71.9344 229.591 71.808 228.963 69.1728C228.483 67.1614 228.314 65.5676 228.329 63.2103C228.356 59.3412 228.867 56.6934 230.447 52.256C231.089 50.453 231.747 48.4146 231.896 47.7636C232.672 44.3794 233.694 37.4749 233.925 34.0629C234.206 29.9033 234.529 28.8424 235.716 28.1817C236.91 27.5168 237.89 28.2949 238.511 30.4022C238.942 31.8598 238.97 32.8429 238.743 38.3336C238.41 46.4067 238.423 50.897 238.819 62.6559C239.071 70.144 239.249 72.575 239.63 73.7214C240.276 75.6626 240.079 77.5044 239.06 79.0467C238.107 80.4898 236.969 81.2533 233.962 82.4705C231.205 83.5863 231.039 84.1505 233.433 84.2762C236.402 84.4319 239.629 82.4851 241.412 79.4622C242.034 78.4083 242.231 78.2582 242.678 78.5C243.535 78.962 245.004 80.9601 245.509 82.3462C246.647 85.4844 244.656 89.8302 241.007 92.166C237.841 94.1926 234.603 94.7067 231.344 93.6979C227.473 92.5008 225.624 90.7549 224.553 87.2825C224.229 86.2285 223.895 85.1454 223.81 84.8696C223.686 84.4638 223.88 84.3554 224.855 84.2873C225.523 84.2415 226.077 84.0761 226.109 83.9129C226.139 83.7524 225.105 83.0333 223.797 82.3052C219.617 79.9805 218.366 78.996 213.576 74.2626C208.535 69.2825 204.064 64.0051 203.154 61.9625C202.607 60.7342 201.971 56.2773 201.929 53.3655C201.908 52.0343 201.967 51.9072 202.687 51.7147C204.32 51.2784 206.341 53.0327 207.018 55.4727C207.179 56.057 207.315 57.3312 207.324 58.3296C207.338 60.104 207.358 60.1506 208.674 61.3053C210.683 63.0679 213.381 64.0551 216.25 64.0788C218.449 64.0968 218.593 64.0593 218.673 63.4465C218.719 63.0859 218.619 62.7948 218.449 62.7948C218.274 62.7948 218.143 62.6288 218.143 62.4065C218.143 61.8284 220.845 57.8398 221.903 56.8553C222.404 56.3884 222.822 55.8291 222.822 55.6256C222.822 55.4199 222 54.5577 220.998 53.7122C219.995 52.866 218.602 51.5855 217.906 50.8692C216.674 49.6013 216.556 49.5519 213.576 49.067L210.512 48.5675L208.703 49.4185C205.861 50.7546 203.583 50.5475 203.004 48.8996C202.443 47.3016 203.801 45.6696 207.031 44.0612C209.954 42.6057 211.487 42.359 215.859 42.6425C219.23 42.8607 219.692 42.9607 220.984 43.7514C222.847 44.8908 223.51 46.2379 223.657 49.1782C223.719 50.4253 223.874 51.4243 224.005 51.4243C224.136 51.4243 224.393 50.6754 224.577 49.7604C224.76 48.8447 224.969 47.9213 225.039 47.708C225.195 47.2328 224.121 41.9394 223.524 40.2477C222.732 38.0015 219.19 32.1384 217.51 30.2917C215.82 28.4332 214.634 26.5351 214.634 25.6875C214.634 25.4492 215.014 24.8135 215.456 24.3153C216.119 23.5657 216.423 23.4226 217.029 23.5733C218.002 23.8151 222.253 27.6843 224.807 30.6523C226.78 32.9443 226.887 33.1479 227.544 35.8936C228.483 39.81 228.438 43.2699 227.397 47.2641C226.268 51.5904 226.414 52.1601 227.971 49.5103C229.832 46.3428 230.352 40.4137 229.226 35.2002C228.89 33.6474 228.321 31.7841 227.964 31.0677C226.98 29.0988 226.053 26.2176 226.053 25.1331C226.053 24.0513 226.73 22.9619 227.611 22.6278C228.51 22.2866 229.531 22.8862 230.6 24.3848Z" fill="white"/>
<path fill-rule="evenodd" clip-rule="evenodd" d="M258.776 77.653C263.51 78.5465 268.453 81.8119 270.964 85.7019C272.34 87.8348 273.455 91.3038 273.458 93.4673C273.47 100.09 266.49 110.303 258.943 114.708C251.284 119.177 244.034 119.139 237.945 114.598C234.089 111.724 230.95 105.781 230.65 100.789L230.565 99.347L234.518 99.1803C238.167 99.0268 238.654 98.9378 240.812 98.0291C242.788 97.1981 243.541 96.6583 245.658 94.5587C248.816 91.4274 250.15 88.9742 250.46 85.7297C250.645 83.7885 250.388 80.9983 249.856 79.185C249.694 78.634 249.836 78.5027 250.893 78.2228C254.207 77.346 256.335 77.1917 258.776 77.653Z" fill="white"/>
<path fill-rule="evenodd" clip-rule="evenodd" d="M222.335 93.8834C222.904 94.6595 223.749 95.6419 224.257 96.1157C225.119 96.9223 225.161 97.0724 225.161 99.3186C225.161 104.643 227.117 110.712 230.22 115.015C231.24 116.431 231.251 116.475 230.8 117.346C229.981 118.93 228.983 122.531 228.472 125.749L227.974 128.882L226.345 127.357C225.45 126.519 223.824 125.063 222.739 124.126L220.761 122.421L221.503 121.45C222.498 120.151 223.925 117.095 224.445 115.155C224.979 113.161 224.969 108.554 224.426 106.252C223.59 102.708 221.819 99.9063 218.06 96.1761C216.64 94.7665 215.52 93.5555 215.581 93.495C215.706 93.37 220.037 92.5675 220.817 92.5245C221.098 92.5085 221.765 93.1067 222.335 93.8834Z" fill="white"/>
<path fill-rule="evenodd" clip-rule="evenodd" d="M282.921 95.0478C285.873 96.518 287.251 97.5879 289.167 99.9015C292.113 103.459 293.405 106.363 294.159 111.133C294.466 113.076 294.437 113.656 293.901 116.264C292.747 121.866 290.3 126.516 285.772 131.711C280.889 137.313 273.344 141.168 268.132 140.722C264.178 140.384 258.05 137.522 255.044 134.607C252.509 132.151 249.185 128.007 247.937 125.749L246.772 123.641L248.332 123.637C253.428 123.621 258.857 121.855 263.9 118.571C264.864 117.943 267.043 116.042 268.738 114.35C274.667 108.432 277.955 102.064 278.548 95.3535L278.743 93.1345L279.802 93.5784C280.388 93.8244 281.779 94.4795 282.921 95.0478Z" fill="white"/>
<path fill-rule="evenodd" clip-rule="evenodd" d="M85.9988 106.31C90.9 107.647 94.7888 109.966 98.1349 113.546C105.57 121.502 108.933 134.151 106.713 145.8C105.972 149.682 104.657 152.765 102.277 156.2C99.5156 160.183 96.6091 162.159 90.7333 164.048L87.2798 165.157L82.3088 165.129C77.797 165.104 77.0944 165.029 74.7056 164.312C73.2572 163.877 71.0407 163.041 69.7765 162.453C67.7714 161.521 67.1128 160.998 64.6053 158.335C59.9909 153.436 56.9079 147.824 55.0674 140.974C54.0091 137.035 53.9721 136.731 53.9721 131.961C53.9721 126.387 54.2114 125.141 56.1405 120.701C57.5498 117.457 60.8777 113.196 63.524 111.25C66.4912 109.067 72.2686 106.531 75.75 105.882C77.6714 105.523 84.0977 105.792 85.9988 106.31Z" fill="white"/>
<path fill-rule="evenodd" clip-rule="evenodd" d="M48.6802 118.281C49.7944 118.516 50.7349 118.754 50.797 118.816C50.8584 118.876 50.6463 119.702 50.3274 120.646C47.9372 127.724 48.5721 141.168 51.6419 148.462C53.077 151.873 55.8412 156.437 58.1414 159.195C60.2002 161.663 65.1523 166.091 66.8944 167.02L67.5621 167.376L66.5044 168.651C65.9226 169.352 64.5544 170.653 63.4688 171.539C61.283 173.319 60.9621 173.389 57.5923 172.842C56.5451 172.672 54.4591 172.342 52.9277 172.104C51.3956 171.867 49.484 171.566 48.6523 171.432C43.3437 170.573 33.5756 162.439 25.8963 152.483C23.5695 149.467 21.4856 145.605 20.2821 142.083C18.8888 138.006 19.3033 133.472 21.4026 129.797C25.9758 121.797 39.1005 116.256 48.6802 118.281Z" fill="white"/>
<path fill-rule="evenodd" clip-rule="evenodd" d="M238 121.422L240.451 122.642L241.059 124.39C242.637 128.925 246.661 134.657 251.507 139.272C253.201 140.886 256.464 142.929 259.165 144.068C260.391 144.586 260.784 144.888 260.641 145.204C260.535 145.439 260.386 146.826 260.313 148.267C260.161 151.263 260.741 154.672 261.726 156.588C262.069 157.254 262.291 157.829 262.228 157.891C262.167 157.953 261.421 158.134 260.558 158.298C253.958 159.548 243.986 156.619 238.529 151.828C237.539 150.959 237.417 150.68 237.144 148.684C236.757 145.834 235.905 142.777 234.682 139.837C233.135 136.121 232.644 133.433 232.85 129.797C233.068 125.943 234.57 120.114 235.326 120.182C235.448 120.193 236.663 120.756 238 121.422Z" fill="white"/>
<path fill-rule="evenodd" clip-rule="evenodd" d="M217.558 127.45C220.482 129.693 224.78 134.039 226.323 136.315C228.243 139.148 229.692 142.111 230.86 145.605C233.053 152.154 233.002 157.447 230.68 164.075C229.009 168.846 226.563 172.588 222.627 176.398C220.706 178.258 220.048 178.711 218.729 179.083C214.928 180.154 202.241 181.431 190.378 181.937C184.455 182.19 179.794 182.182 170.772 181.902C153.032 181.353 127.816 181.189 120.615 181.575C109.42 182.175 102.606 183.08 98.0567 184.571C95.7984 185.312 95.7509 185.291 93.6433 182.74C91.3981 180.022 89.0002 174.947 88.4798 171.813L88.2823 170.621L90.4123 170.122C91.5823 169.848 93.1333 169.493 93.8519 169.335C96.3774 168.781 102.43 164.908 105.02 162.19C106.905 160.209 108.183 158.307 109.863 154.979C112.349 150.05 113.336 144.552 113.064 137.147L112.901 132.737L119.097 132.626C122.507 132.566 133.649 132.482 143.869 132.442C174.308 132.322 192.864 131.514 202.27 129.897C206.001 129.256 209.96 128.135 212.545 126.988C213.771 126.444 214.974 125.998 215.219 125.998C215.461 125.998 216.527 126.66 217.558 127.45Z" fill="white"/>
<path fill-rule="evenodd" clip-rule="evenodd" d="M294.029 134.624C293.46 141.557 288.733 149.681 283.422 152.855C282.168 153.603 280.349 154.471 279.328 154.807C275.652 156.017 269.745 156.315 267.771 155.39C266.076 154.597 264.789 150.209 265.495 147.63L265.822 146.437L269.108 146.246C273.953 145.962 276.309 145.379 279.829 143.59C284.62 141.156 289.314 137.089 292.519 132.599L293.726 130.907L293.963 131.725C294.092 132.173 294.122 133.486 294.029 134.624Z" fill="white"/>
<path fill-rule="evenodd" clip-rule="evenodd" d="M17.0253 148.906C17.3909 149.753 19.7895 153.232 22.4156 156.726C24.4291 159.405 34.1714 168.811 37.9863 171.759L38.9895 172.534L37.9863 172.697C34.0577 173.335 28.2119 173.705 15.6237 174.113C13.9926 174.167 13.7302 174.081 11.8919 172.891C8.35325 170.601 6.29651 167.57 5.40139 163.327C4.62349 159.639 6.04604 155.345 9.15907 151.984C10.6709 150.352 11.6972 149.635 13.7023 148.807C15.93 147.887 16.5949 147.907 17.0253 148.906Z" fill="white"/>
<path fill-rule="evenodd" clip-rule="evenodd" d="M50.4635 177.374C51.9112 177.593 53.896 177.914 54.8491 178.081C55.7965 178.247 57.3579 178.468 58.2746 178.566L59.9595 178.746L58.2265 180.827C53.1209 186.955 43.7121 197.14 37.9305 202.795C34.9786 205.682 34.4721 206.063 33.586 206.056C32.0923 206.044 29.1586 205.287 26.6519 204.264C20.7481 201.857 16.9409 198.554 14.4384 193.667C11.8681 188.647 11.4837 185.423 12.9837 181.464L13.6465 179.717L24.5909 179.223C35.7586 178.718 39.1765 178.345 43.5844 177.146C45.3663 176.661 46.3088 176.543 46.9402 176.722C47.4202 176.859 49.0151 177.154 50.4635 177.374Z" fill="white"/>
<path fill-rule="evenodd" clip-rule="evenodd" d="M68.4816 181.895C73.2823 183.369 77.2828 187.815 78.4988 193.029C79.763 198.446 76.14 204.698 66.6153 213.534C64.9723 215.059 62.8242 216.858 61.8816 217.501C57.9265 220.196 53.0588 221.714 50.1014 221.177C46.1742 220.462 41.4035 216.808 39.5323 213.08C39.0167 212.054 38.5995 210.992 38.5995 210.709C38.5995 210.429 39.2951 209.616 40.1309 208.92C43.3619 206.228 61.5879 186.345 64.0263 182.851C65.243 181.108 65.6407 181.023 68.4816 181.895Z" fill="white"/>
<path fill-rule="evenodd" clip-rule="evenodd" d="M227.475 187.954C230.764 192.78 233.07 199.535 233.07 204.345C233.07 210.196 230.298 216.283 225.339 221.317C221.062 225.659 218.84 226.763 212.045 227.919C204.914 229.132 188.567 229.417 170.326 228.645C142.115 227.451 121.25 227.339 112.316 228.335C110.004 228.593 107.992 228.873 107.846 228.957C107.702 229.041 106.956 228.536 106.203 227.848C105.448 227.157 103.767 225.783 102.486 224.811C101.189 223.828 98.7119 221.843 96.93 220.36C94.3953 218.251 93.6719 217.487 93.5177 216.754C93.4109 216.244 93.0495 214.578 92.7153 213.052C91.987 209.728 91.9528 207.922 92.5563 204.511C93.1074 201.392 94.0933 198.575 95.7781 195.303C98.1342 190.726 99.0321 190.04 104.101 188.945C109.653 187.746 114.767 187.266 126.909 186.805C134.353 186.524 139.107 186.535 151.612 186.869C173.305 187.447 194.919 187.395 202.659 186.748C214.857 185.727 220.889 184.831 222.822 183.754C223.512 183.369 223.612 183.42 224.953 184.834C225.714 185.639 226.869 187.067 227.475 187.954Z" fill="white"/>
<path fill-rule="evenodd" clip-rule="evenodd" d="M80.2053 209.336C80.7558 210.021 81.9126 211.61 82.7679 212.858C83.6993 214.216 85.5105 216.222 87.2658 217.836C88.8809 219.323 91.4574 221.682 92.9888 223.078C94.5202 224.473 97.027 226.553 98.5584 227.698C101.817 230.134 104.294 232.405 104.85 233.464C105.237 234.201 105.228 234.21 104.337 234.074C103.53 233.95 103.457 233.995 103.669 234.49C104.782 237.096 104.829 237.42 104.46 239.87C104.263 241.173 104.043 242.318 103.975 242.393C103.906 242.47 103.536 242.172 103.15 241.728C102.262 240.708 101.706 240.979 102.073 242.255C102.672 244.335 102.434 245.48 101.024 247.303C99.5009 249.272 94.0507 254.334 93.044 254.715C92.0972 255.073 91.2007 255.037 90.4542 254.612C90.1137 254.418 89.1733 253.903 88.3381 253.453C84.8847 251.593 83.4879 249.567 83.6735 246.693C83.7949 244.806 84.7067 243.031 85.553 243.031C85.7805 243.031 86.4705 243.586 87.0712 244.252C88.073 245.363 88.1623 245.597 88.0737 246.873C87.9998 247.926 88.0821 248.318 88.4072 248.453C88.6409 248.551 89.1272 249.244 89.467 249.965C90.1577 251.431 90.3809 251.407 90.5254 249.854C90.6719 248.27 91.0946 247.937 92.8214 248.044C94.1302 248.124 94.3074 248.067 94.3814 247.538C94.4449 247.084 94.186 246.82 93.2951 246.429C92.0372 245.878 90.616 244.557 86.8674 240.452C85.5251 238.983 83.3372 236.948 82.0437 235.967C79.036 233.685 76.9758 231.772 76.4512 230.773C76.2209 230.336 76.0284 229.318 76.0284 228.541C76.0284 227.34 76.2628 226.725 77.5005 224.673C79.5753 221.234 79.1777 220.938 76.223 223.721C74.887 224.98 73.1386 226.364 72.3244 226.808L70.8488 227.612L70.013 226.98C67.9521 225.421 64.9863 222.628 64.853 222.121C64.627 221.264 65.384 220.263 69.4444 216.047C73.9326 211.388 77.7816 208.142 78.8693 208.101C79.0549 208.094 79.6486 208.642 80.2053 209.336Z" fill="white"/>
<path fill-rule="evenodd" clip-rule="evenodd" d="M223.642 233.075C227.014 240.342 227.56 248.231 225.167 255.123C222.925 261.585 218.89 266.664 212.74 270.767C202.644 277.503 189.458 280.493 178.067 278.628C176.063 278.299 172.972 277.894 171.204 277.726C169.442 277.559 166.4 277.277 164.478 277.102C162.551 276.927 158.657 276.531 155.844 276.224C149.83 275.567 139.413 274.639 133.203 274.205C121.896 273.416 114.959 272.089 110.618 269.883C107.907 268.507 104.826 263.222 103.354 257.425C102.34 253.432 102.387 252.851 103.849 251.268C104.95 250.075 106.733 246.761 106.743 245.888C106.744 245.689 107.057 244.917 107.438 244.168C108.331 242.416 109.67 237.125 109.67 235.35C109.67 234.157 109.531 234.201 115.519 233.523C121.824 232.809 142.644 232.892 162.584 233.709C184.975 234.627 206.892 234.495 213.437 233.404C215.887 232.995 221.065 231.719 221.653 231.378C222.483 230.896 222.728 231.106 223.642 233.075Z" fill="white"/>
<path fill-rule="evenodd" clip-rule="evenodd" d="M82.8237 239.981L84.5226 241.451L83.8821 241.967C83.1209 242.579 81.5428 242.6 80.4007 242.012C79.4505 241.523 78.8951 240.591 78.1012 238.15C77.8039 237.235 77.4502 236.225 77.3163 235.904C77.0665 235.308 79.5377 237.136 82.8237 239.981Z" fill="white"/>
<path fill-rule="evenodd" clip-rule="evenodd" d="M221.888 273.149C224.618 276.262 226.298 279.945 227.354 285.131C228.19 289.242 228.241 291.204 227.644 296.557C226.943 302.852 225.613 308.002 223.733 311.699C222.435 314.251 219.581 318.046 218.227 319.023C211.245 324.055 194.193 327.516 180.045 326.772L176.09 326.563L177.934 323.763C181.072 318.998 183.438 312.808 184.963 305.376C186.13 299.691 186.249 291.355 185.236 286.295L185.058 285.408L188.651 285.032C199.818 283.86 211.244 279.595 218.477 273.897C219.647 272.975 220.711 272.194 220.817 272.179C220.925 272.163 221.401 272.595 221.888 273.149Z" fill="white"/>
<path fill-rule="evenodd" clip-rule="evenodd" d="M107.777 274.806C109.085 275.615 112.372 276.696 115.602 277.379C119.319 278.165 124.291 278.75 133.203 279.449C141.168 280.072 148.249 280.723 152.196 281.191C155.844 281.624 162.745 282.301 165.647 282.51C169.908 282.817 176.14 283.749 177.456 284.274C178.9 284.852 179.337 285.574 180.127 288.708C181.352 293.563 181.181 298.303 179.541 304.988C177.26 314.278 174.262 320.202 169.519 324.788C167.069 327.158 166.037 327.733 162.445 328.733C154.836 330.852 144.843 331.466 135.989 330.359C129.973 329.607 119.325 326.504 114.544 324.108C108.346 321.002 105.138 316.247 102.881 306.818C102.111 303.6 101.994 302.52 101.858 297.361C101.718 292.036 101.769 291.175 102.444 287.308C102.85 284.978 103.508 281.97 103.91 280.61C104.678 278.003 106.279 274.204 106.607 274.204C106.713 274.204 107.248 274.479 107.777 274.806Z" fill="white"/>
<path fill-rule="evenodd" clip-rule="evenodd" d="M222.535 325.038C222.846 325.773 223.377 327.701 223.718 329.337C224.894 334.989 224.057 344.562 221.83 350.94C220.756 354.02 219.068 357.446 217.802 359.123C216.537 360.796 213.854 363.02 211.571 364.288C207.951 366.297 201.406 368.196 195.781 368.869C188.54 369.735 177.147 368.161 172.248 365.617C169.462 364.169 169.462 364.169 170.35 362.423C172.096 358.982 173.961 352.882 174.97 347.309C175.609 343.786 176.119 336.457 175.893 334.051L175.701 331.999H184.418C192.968 331.999 195.038 331.855 201.629 330.801C205.194 330.231 210.474 328.884 213.604 327.75C216.5 326.7 220.593 324.728 221.073 324.151C221.655 323.456 221.933 323.624 222.535 325.038Z" fill="white"/>
<path fill-rule="evenodd" clip-rule="evenodd" d="M111.481 329.136C116.92 331.864 126.797 334.735 134.512 335.83C138.526 336.399 149.801 336.471 154.257 335.954C160.663 335.212 166.739 333.786 168.961 332.501C169.686 332.084 170.313 331.882 170.449 332.028C171.168 332.796 170.911 340.292 169.995 345.256C168.578 352.938 166.162 359.042 162.511 364.169C159.63 368.215 156.429 370.529 152.252 371.59C145.373 373.336 132.786 373.396 124.57 371.723C117.997 370.384 113.522 367.861 109.841 363.421C104.874 357.428 102.458 345.478 103.945 334.246C104.302 331.556 105.181 327.34 105.704 325.815C105.786 325.574 106.44 325.903 107.665 326.799C108.675 327.539 110.394 328.592 111.481 329.136Z" fill="white"/>
<path fill-rule="evenodd" clip-rule="evenodd" d="M217.83 369.439C219.372 373.017 219.352 376.122 217.765 379.451C216.391 382.335 214.985 383.972 212.295 385.82C206.962 389.483 199.346 391.649 191.826 391.642C180.797 391.632 170.561 387.036 167.514 380.726C166.496 378.619 166.118 373.024 166.867 371.159C167.135 370.493 167.494 370.03 167.68 370.112C175.36 373.453 180.826 374.487 190.824 374.487C195.864 374.487 197.611 374.37 200.683 373.829C206.613 372.784 212.475 370.815 215.526 368.843C216.25 368.375 216.915 367.991 217.016 367.983C217.114 367.975 217.483 368.635 217.83 369.439Z" fill="white"/>
<path fill-rule="evenodd" clip-rule="evenodd" d="M111.286 372.664C114.75 375.22 119.139 376.703 126.463 377.79C131.143 378.484 145.391 378.478 149.885 377.781C154.313 377.094 156.242 376.57 158.63 375.407C159.772 374.851 160.774 374.49 160.878 374.597C161.466 375.204 161.819 378.535 161.517 380.616C160.984 384.277 159.223 386.944 155.817 389.253C152.195 391.706 149.049 392.289 139.469 392.277C130.863 392.267 126.227 391.673 119.752 389.753C113.318 387.846 109.244 384.049 107.833 378.647C107.528 377.483 107.547 376.899 107.95 375.013C108.582 372.046 108.975 371.089 109.448 371.364C109.646 371.479 110.478 372.068 111.286 372.664Z" fill="white"/>
<path fill-rule="evenodd" clip-rule="evenodd" d="M167.207 389.526C170.464 392.46 176.564 395.127 182.942 396.408C186.674 397.158 197.326 397.155 200.877 396.404C206.502 395.213 211.284 393.466 214.439 391.447C215.358 390.859 216.173 390.378 216.25 390.378C216.727 390.378 217.631 394.01 218.272 398.504C218.722 401.655 216.615 410.013 214.484 413.535C210.435 420.222 204.442 424.146 195.335 426.072C192.494 426.672 186.788 426.685 184.084 426.096C177.567 424.679 171.56 421.651 167.429 417.702L165.509 415.864L165.968 413.396C166.284 411.697 166.439 409.07 166.464 404.966C166.505 398.255 166.265 396.766 164.458 392.568L163.419 390.156L164.241 388.977C164.686 388.34 165.107 387.792 165.16 387.784C165.214 387.776 166.12 388.548 167.207 389.526Z" fill="white"/>
<path fill-rule="evenodd" clip-rule="evenodd" d="M110.701 392.16C116.149 395.889 129.778 398.325 142.421 397.833C150.748 397.508 154.671 396.814 157.515 395.165C158.184 394.777 158.817 394.454 158.908 394.454C159.239 394.454 160.769 398.143 161.161 399.89C162.068 403.918 161.304 411.926 159.556 416.725C157.162 423.299 151.5 428.234 144.76 429.622C140.011 430.6 129.666 429.989 121.2 428.226C114.544 426.842 112.661 425.967 109.745 422.908C106.55 419.558 104.627 415.198 104.205 410.346C103.833 406.074 105.067 399.076 106.891 395.12C107.823 393.095 108.945 391.265 109.253 391.265C109.33 391.265 109.977 391.664 110.701 392.16Z" fill="white"/>
<path fill-rule="evenodd" clip-rule="evenodd" d="M165.452 423.698C169.983 427.337 175.785 430.024 181.939 431.33C185.253 432.034 194.195 432.037 197.368 431.338C202.436 430.219 207.057 428.482 209.565 426.752C210.29 426.252 210.914 425.897 210.962 425.959C211.108 426.144 211.699 428.677 211.875 429.87C212.108 431.452 211.048 437.829 210.06 440.796C209.229 443.292 207.088 447.261 205.245 449.727C203.701 451.789 200.57 454.414 197.924 455.862C193.552 458.256 186.79 459.928 182.998 459.556C179.227 459.185 174.42 457.489 170.215 455.044C167.542 453.49 163.676 449.856 162.314 447.619L161.303 445.955L161.376 441.989C161.46 437.386 160.949 433.922 159.717 430.756L158.908 428.677L160.634 426.347C161.58 425.071 162.569 423.591 162.821 423.074C163.077 422.548 163.329 422.132 163.392 422.132C163.453 422.132 164.367 422.826 165.452 423.698Z" fill="white"/>
<path fill-rule="evenodd" clip-rule="evenodd" d="M112.233 431.764C118.606 434.168 130.418 435.735 140.026 435.454C146.821 435.256 149.983 434.61 153.338 432.735C154.33 432.181 154.447 432.281 155.216 434.389C156.268 437.277 156.582 440.38 156.193 444.097C154.893 456.577 148.494 465.5 139.051 468.005C135.022 469.073 126.13 468.724 119.891 467.252C114.933 466.082 110.849 463.41 108.232 459.627C106.885 457.68 104.766 453.165 104.248 451.141C103.458 448.05 103.132 444.54 103.341 441.379C103.663 436.526 104.483 433.332 106.158 430.424L107.053 428.871L108.821 430.008C109.796 430.634 111.327 431.423 112.233 431.764Z" fill="white"/>
<path fill-rule="evenodd" clip-rule="evenodd" d="M170.41 461.687C175.439 464.174 178.012 464.76 183.945 464.775C186.59 464.781 189.433 464.686 190.252 464.564L191.742 464.342L191.925 467.698C192.221 473.16 194.02 477.692 197.708 482.257C201.822 487.352 206.057 490.377 215.526 494.985C228.364 501.234 232.213 503.206 235.215 505.074C238.78 507.293 239.074 507.578 239.286 509.019C239.448 510.13 239.448 510.13 237.916 510.822C235.344 511.989 232.457 512.433 226.33 512.604C217.809 512.843 207.075 512.149 200.459 510.931C197.574 510.4 194.277 509.53 189.959 508.161C184.753 506.511 183.151 506.154 178.374 505.585C168.265 504.38 162.908 503.363 161.776 502.434C161.517 502.221 161.406 501.574 161.442 500.491C161.476 499.494 161.313 498.453 161.016 497.788C159.914 495.308 160.482 491.631 163.3 483.006C164.434 479.539 168.432 462.663 168.432 461.347C168.432 460.717 168.46 460.723 170.41 461.687Z" fill="white"/>
<path fill-rule="evenodd" clip-rule="evenodd" d="M118.499 472.23C122.752 473.423 124.959 473.695 131.838 473.872L138.661 474.048L138.482 474.935C138.074 476.96 137.962 485.363 138.297 488.968C138.729 493.639 139.415 496.845 141.31 503.057C142.58 507.217 142.803 508.324 142.923 511.086C143.034 513.637 142.965 514.52 142.588 515.426C142.328 516.05 142.115 517.201 142.115 517.978V519.391L140.43 520.224C139.503 520.682 137.491 521.531 135.96 522.111C132.618 523.379 131.784 523.951 129.853 526.297C128.173 528.341 126.547 529.552 123.846 530.774C119.752 532.626 110.116 535.003 103.794 535.72C98.8374 536.283 91.2356 535.59 88.8391 534.355C87.8923 533.869 87.8923 533.869 88.4979 532.537C90.877 527.307 90.7626 527.461 96.6544 521.444C105.913 511.987 108.775 507.471 111.421 498.149C113.223 491.798 115.797 477.053 115.797 473.077C115.797 472.273 115.926 471.635 116.09 471.635C116.251 471.635 117.329 471.902 118.499 472.23Z" fill="white"/>
<path fill-rule="evenodd" clip-rule="evenodd" d="M165.73 506.136C167.14 506.38 170.66 506.845 173.556 507.171C182.05 508.125 183.114 508.339 190.824 510.662C196.17 512.272 201.249 513.376 206.168 513.999C211.71 514.699 221.123 515.117 227.362 514.937C233.404 514.764 236.286 514.342 238.807 513.262C240.712 512.445 240.311 513.212 238.306 514.219C235.456 515.649 232.82 516.007 225.161 515.999C211.377 515.986 202.778 514.791 191.38 511.306C186.218 509.727 182.83 509.058 175.589 508.181C167.373 507.188 162.805 506.297 162.382 505.608C162.264 505.416 162.375 505.375 162.682 505.497C162.952 505.605 164.311 505.89 165.73 506.136Z" fill="white"/>
<path fill-rule="evenodd" clip-rule="evenodd" d="M141.029 522.637C140.639 523.025 133.005 526.151 132.841 525.989C132.632 525.784 133.815 525.22 137.575 523.734C141.474 522.192 141.474 522.192 141.029 522.637Z" fill="white"/>
<path fill-rule="evenodd" clip-rule="evenodd" d="M124.57 532.926C124.57 533.271 121.785 534.58 119.027 535.534C112.149 537.908 103.919 539.581 99.1151 539.581C94.4923 539.581 89.7551 538.635 88.8391 537.529C88.486 537.102 88.5328 537.076 89.3407 537.257C97.1421 539.009 104.491 538.648 114.767 536.012C118.109 535.154 122.844 533.602 124.486 532.826C124.536 532.803 124.57 532.843 124.57 532.926Z" fill="white"/>
<path fill-rule="evenodd" clip-rule="evenodd" d="M161.72 18.7545C161.72 18.9233 162.124 19.1519 162.627 19.2672C163.129 19.3832 164.087 19.9863 164.784 20.6241C166.065 21.7982 166.677 21.8746 166.677 20.8617C166.677 20.5171 166.205 20.0342 165.425 19.5847C164.06 18.7989 161.72 18.2744 161.72 18.7545Z" fill="#1A1919"/>
<path fill-rule="evenodd" clip-rule="evenodd" d="M137.743 19.6702C136.406 20.367 135.565 21.3056 135.781 21.86C136.067 22.5972 136.755 22.4152 137.459 21.4168C137.81 20.92 138.689 20.2482 139.386 19.9467C140.082 19.6451 140.667 19.329 140.667 19.2533C140.667 18.9052 138.661 19.1901 137.743 19.6702Z" fill="#1A1919"/>
<path fill-rule="evenodd" clip-rule="evenodd" d="M162.389 23.1954C161.184 23.5636 159.772 25.2164 159.358 26.7415C159.147 27.5161 159.077 29.21 159.171 31.2067C159.405 36.1986 160.956 39.9552 163.893 42.6481C165.35 43.9848 166.677 44.435 169.156 44.435C171.412 44.435 172.512 43.7944 173.436 41.9394C174.041 40.727 174.14 40.1087 174.127 37.6131C174.087 29.8477 170.071 23.6296 164.728 23.0648C163.949 22.9821 162.893 23.0411 162.389 23.1954Z" fill="#1A1919"/>
<path fill-rule="evenodd" clip-rule="evenodd" d="M167.096 25.7709C170.269 27.2076 172.926 32.4545 172.937 37.3081C172.942 38.8331 172.785 39.9913 172.485 40.6631L172.024 41.6893L172.167 39.9427C172.697 33.4807 167.112 27.0624 163.447 29.9207L162.723 30.4855L163.531 31.0858C165.09 32.2454 165.742 34.5638 164.78 35.533C164.531 35.7824 164.245 36.0047 164.172 36.0047C163.782 36.0047 162.306 35.0613 162.306 34.8118C162.306 34.6458 162.205 34.5346 162.055 34.5346C161.585 34.5346 162.293 37.8625 163.123 39.5543C164.203 41.7602 163.298 40.9966 162.038 38.6393C160.818 36.3563 160.249 33.9802 160.259 31.2067C160.268 28.5444 160.85 26.8957 162.138 25.8793C163.154 25.0775 165.452 25.0275 167.096 25.7709Z" fill="white"/>
<path fill-rule="evenodd" clip-rule="evenodd" d="M142.004 23.9443C140.145 24.5398 137.787 26.8797 137.033 28.8772C136.694 29.7762 136.432 31.4554 136.336 33.3417C136.1 38.0015 136.866 40.5853 139.245 43.1594C140.835 44.8803 142.449 45.4695 144.871 45.2166C149.216 44.7608 150.924 43.7166 152.498 40.5527C155.37 34.784 153.428 26.4608 148.687 24.2146C147.135 23.4788 143.869 23.3468 142.004 23.9443Z" fill="#1A1919"/>
<path fill-rule="evenodd" clip-rule="evenodd" d="M148.437 26.5643C151.506 28.8438 153.071 34.008 151.944 38.1398C151.672 39.1381 151.172 40.3609 150.846 40.8299C150.479 41.3572 150.323 41.4642 150.443 41.1071C151.725 37.3081 150.968 33.414 148.52 31.2206C146.376 29.2982 143.777 29.2245 141.753 31.0288L140.806 31.8723L141.585 32.1738C143.34 32.8512 143.867 35.1745 142.561 36.4758C141.685 37.347 140.973 37.3616 139.915 36.5293L139.107 35.8936L139.26 37.9598C139.372 39.457 139.624 40.4075 140.18 41.4121C140.609 42.1888 140.896 42.8475 140.833 42.9093C140.597 43.1455 139.061 41.0515 138.331 39.4987C137.664 38.08 137.575 37.5297 137.575 34.8396C137.575 32.0112 137.643 31.6472 138.497 29.8477C139.949 26.7866 141.697 25.7813 145.373 25.8952C147.128 25.9494 147.809 26.0981 148.437 26.5643Z" fill="white"/>
<path fill-rule="evenodd" clip-rule="evenodd" d="M146.069 47.2377C143.997 48.3069 142.949 50.0098 142.552 52.9493L142.365 54.3361L141.391 53.8643C140.861 53.608 140.2 53.476 139.942 53.5739C137.802 54.3924 146.153 58.3025 153.227 59.7934C156.652 60.5153 163.267 60.507 166.677 59.7768C169.407 59.1925 172.703 57.9231 174.28 56.849C175.172 56.2425 175.322 56.2189 175.631 56.6385C175.94 57.0547 176.017 57.0262 176.309 56.3884C176.953 54.9739 175.481 53.0716 174.142 53.5878C173.724 53.749 173.701 53.8553 174.008 54.2249C174.46 54.7696 174.002 55.1601 171.496 56.3731C168.765 57.6946 163.782 58.7173 160.077 58.7173H158.852L157.919 56.0278C157.409 54.5577 156.597 52.6582 156.126 51.8398C155.092 50.0376 153.056 48.1089 151.388 47.3537C149.885 46.6721 147.276 46.6159 146.069 47.2377Z" fill="#1A1919"/>
<path fill-rule="evenodd" clip-rule="evenodd" d="M151.138 49.2782C152.847 50.1265 154.009 51.3965 155.079 53.5871C155.96 55.39 156.865 58.1087 156.652 58.315C156.475 58.4852 153.533 58.0281 151.778 57.5563C150.578 57.2346 150.481 57.1235 149.467 54.9044C148.884 53.6288 148.284 52.5888 148.13 52.5888C147.86 52.5888 148.037 54.8349 148.401 56.0278L148.604 56.6934L144.092 55.0843L144.217 53.476C144.551 49.1782 147.424 47.4343 151.138 49.2782Z" fill="white"/>
<path fill-rule="evenodd" clip-rule="evenodd" d="M138.578 52.561C137.743 53.3933 137.436 53.9435 137.436 54.6126C137.436 55.7833 137.708 55.7221 138.68 54.3361C139.127 53.6983 139.862 53.0098 140.304 52.8139C141.725 52.1872 141.817 51.4243 140.472 51.4243C139.995 51.4243 139.302 51.8398 138.578 52.561Z" fill="#1A1919"/>
</g>
</svg>
